<?xml version="1.0" encoding="UTF-8" standalone="no"?>
<!-- Created with Inkscape (http://www.inkscape.org/) -->

<svg
   version="1.1"
   id="svg3713"
   xml:space="preserve"
   width="24"
   height="24"
   viewBox="0 0 24 24"
   sodipodi:docname="tikzit-mono.svg"
   inkscape:version="1.4.2 (f4327f4, 2025-05-13)"
   xmlns:inkscape="http://www.inkscape.org/namespaces/inkscape"
   xmlns:sodipodi="http://sodipodi.sourceforge.net/DTD/sodipodi-0.dtd"
   xmlns="http://www.w3.org/2000/svg"
   xmlns:svg="http://www.w3.org/2000/svg"
   xmlns:rdf="http://www.w3.org/1999/02/22-rdf-syntax-ns#"
   xmlns:cc="http://creativecommons.org/ns#"
   xmlns:dc="http://purl.org/dc/elements/1.1/"><metadata
     id="metadata3719"><rdf:RDF><cc:Work
         rdf:about=""><dc:format>image/svg+xml</dc:format><dc:type
           rdf:resource="http://purl.org/dc/dcmitype/StillImage" /></cc:Work></rdf:RDF></metadata><defs
     id="defs3717" /><sodipodi:namedview
     pagecolor="#ffffff"
     bordercolor="#666666"
     borderopacity="1"
     objecttolerance="10"
     gridtolerance="10"
     guidetolerance="10"
     inkscape:pageopacity="0"
     inkscape:pageshadow="2"
     inkscape:window-width="3440"
     inkscape:window-height="1369"
     id="namedview3715"
     showgrid="false"
     inkscape:zoom="35.882439"
     inkscape:cx="15.899142"
     inkscape:cy="14.282753"
     inkscape:window-x="-8"
     inkscape:window-y="-8"
     inkscape:window-maximized="1"
     inkscape:current-layer="g3727"
     inkscape:showpageshadow="2"
     inkscape:pagecheckerboard="0"
     inkscape:deskcolor="#d1d1d1" /><g
     id="g3721"
     inkscape:groupmode="layer"
     inkscape:label="logo"
     transform="matrix(1.3333333,0,0,-1.3333333,138.62,138.61867)"><g
       id="g3723"><g
         id="g3725" /><g
         id="g3727"><path
           id="path3737"
           style="fill:#000000;fill-opacity:1;fill-rule:nonzero;stroke:none;stroke-width:0.0833467"
           d="m -90.239763,103.23315 c -1.166319,0 -2.201077,-0.56336 -2.846895,-1.43285 -0.598235,0.164 -1.228046,0.25151 -1.878346,0.25151 -3.914554,0 -7.087806,-3.173254 -7.087806,-7.087809 0,-0.650299 0.0875,-1.28011 0.25151,-1.878345 -0.86949,-0.645818 -1.43285,-1.680576 -1.43285,-2.846895 0,-1.957278 1.58663,-3.543905 3.543906,-3.543905 1.166319,0 2.201077,0.563364 2.846885,1.432848 0.598234,-0.163992 1.228056,-0.251501 1.878355,-0.251501 0.6503,0 1.280111,0.08754 1.878346,0.251501 0.645818,-0.869484 1.680576,-1.432848 2.846895,-1.432848 1.957278,0 3.543905,1.586627 3.543905,3.543905 0,1.166319 -0.563364,2.201077 -1.432848,2.846895 0.163992,0.598235 0.251501,1.228046 0.251501,1.878345 0,0.6503 -0.08754,1.280122 -0.251501,1.878356 0.869484,0.645808 1.432848,1.680566 1.432848,2.846885 0,1.957278 -1.586627,3.543908 -3.543905,3.543908 z m 0.0197,-1.81132 c 0.98116,0 1.772015,-0.79086 1.772015,-1.772023 0,-0.98116 -0.790855,-1.771889 -1.772015,-1.771889 -1.226451,0 -2.639123,-0.904782 -1.77189,-1.772005 0.651488,-0.651488 0.651488,-1.71108 0,-2.362568 -0.867233,-0.867223 0.545439,-1.772004 1.77189,-1.772004 0.98116,0 1.772015,-0.790855 1.772015,-1.772015 0,-0.981161 -0.790855,-1.77189 -1.772015,-1.77189 -0.981161,0 -1.77189,0.790729 -1.77189,1.77189 0,1.226451 -0.904782,2.639248 -1.772015,1.772015 -0.814354,-0.814365 -1.548193,-0.814365 -2.362558,0 -0.867233,0.867233 -1.772004,-0.545564 -1.772004,-1.772015 0,-0.981161 -0.790729,-1.77189 -1.77189,-1.77189 -0.98116,0 -1.77202,0.790729 -1.77202,1.77189 0,0.98116 0.79086,1.772015 1.77202,1.772015 1.226451,0 2.639113,0.904781 1.77189,1.772004 -0.651488,0.651488 -0.651488,1.71108 0,2.362568 l 1.772004,1.772005 c 0.651488,0.651488 1.711081,0.651488 2.362558,0 0.867233,-0.867223 1.772015,0.545439 1.772015,1.771889 0,0.981163 0.790729,1.772023 1.77189,1.772023 z" /></g><g
         id="g3785"><g
           id="g3787"><g
             id="g3789"
             transform="translate(-14.174,-35.434)"><g
               id="g3791" /><g
               id="g3793"
               transform="translate(14.174,35.434)" /></g></g><g
           id="g3795"><g
             id="g3797"
             transform="translate(14.173,35.433)"><g
               id="g3799" /><g
               id="g3801"
               transform="translate(-14.173,-35.433)" /></g></g><g
           id="g3803"><g
             id="g3805"
             transform="translate(35.433,14.173)"><g
               id="g3807" /><g
               id="g3809"
               transform="translate(-35.433,-14.173)" /></g></g><g
           id="g3811"><g
             id="g3813"
             transform="translate(35.433,56.692)"><g
               id="g3815" /><g
               id="g3817"
               transform="translate(-35.433,-56.692)" /></g></g><g
           id="g3819"><g
             id="g3821"
             transform="translate(56.692,35.433)"><g
               id="g3823" /><g
               id="g3825"
               transform="translate(-56.692,-35.433)" /></g></g><g
           id="g3827"><g
             id="g3829"
             transform="translate(77.952,56.692)"><g
               id="g3831" /><g
               id="g3833"
               transform="translate(-77.952,-56.692)" /></g></g><g
           id="g3835"><g
             id="g3837"
             transform="translate(56.692,77.952)"><g
               id="g3839" /><g
               id="g3841"
               transform="translate(-56.692,-77.952)" /></g></g><g
           id="g3843"><g
             id="g3845"
             transform="translate(35.433,-56.693)"><g
               id="g3847" /><g
               id="g3849"
               transform="translate(-35.433,56.693)" /></g></g><g
           id="g3851"><g
             id="g3853"
             transform="translate(77.952,-56.693)"><g
               id="g3855" /><g
               id="g3857"
               transform="translate(-77.952,56.693)" /></g></g><g
           id="g3859"><g
             id="g3861"
             transform="translate(56.692,-77.953)"><g
               id="g3863" /><g
               id="g3865"
               transform="translate(-56.692,77.953)" /></g></g><g
           id="g3867"><g
             id="g3869"
             transform="translate(56.692,-35.433)"><g
               id="g3871" /><g
               id="g3873"
               transform="translate(-56.692,35.433)" /></g></g><g
           id="g3875"><g
             id="g3877"
             transform="translate(-77.953,-56.693)"><g
               id="g3879" /><g
               id="g3881"
               transform="translate(77.953,56.693)" /></g></g><g
           id="g3883"><g
             id="g3885"
             transform="translate(-35.433,-56.693)"><g
               id="g3887" /><g
               id="g3889"
               transform="translate(35.433,56.693)" /></g></g><g
           id="g3891"><g
             id="g3893"
             transform="translate(-56.693,-77.953)"><g
               id="g3895" /><g
               id="g3897"
               transform="translate(56.693,77.953)" /></g></g><g
           id="g3899"><g
             id="g3901"
             transform="translate(-56.693,-35.433)"><g
               id="g3903" /><g
               id="g3905"
               transform="translate(56.693,35.433)" /></g></g><g
           id="g3907"><g
             id="g3909"
             transform="translate(14.173,-35.433)"><g
               id="g3911" /><g
               id="g3913"
               transform="translate(-14.173,35.433)" /></g></g><g
           id="g3915"><g
             id="g3917"
             transform="translate(-35.433,-14.174)"><g
               id="g3919" /><g
               id="g3921"
               transform="translate(35.433,14.174)" /></g></g><g
           id="g3923"><g
             id="g3925"
             transform="translate(35.433,-14.174)"><g
               id="g3927" /><g
               id="g3929"
               transform="translate(-35.433,14.174)" /></g></g><g
           id="g3931"><g
             id="g3933"
             transform="translate(-14.174,35.433)"><g
               id="g3935" /><g
               id="g3937"
               transform="translate(14.174,-35.433)" /></g></g><g
           id="g3939"><g
             id="g3941"
             transform="translate(-35.433,14.173)"><g
               id="g3943" /><g
               id="g3945"
               transform="translate(35.433,-14.173)" /></g></g></g><g
         id="g3947" /></g></g></svg>
